
        <svg xmlns="http://www.w3.org/2000/svg" xmlns:xlink="http://www.w3.org/1999/xlink" version="1.1" width="3187.5" height="1125" viewBox="0 0 3187.5 1125">
			
			<g transform="scale(9.375) translate(10, 10)">
				<defs id="SvgjsDefs1011"/><g id="SvgjsG1012" featureKey="JKiIdh-0" transform="matrix(1.25,0,0,1.25,-12.5,-12.5)" fill="#000"><path xmlns="http://www.w3.org/2000/svg" d="M56.3666992,16.3364258C56.3666992,12.8422852,53.5107422,10,50,10s-6.3666992,2.8422852-6.3666992,6.3364258  S46.4892578,22.6733398,50,22.6733398S56.3666992,19.8305664,56.3666992,16.3364258z M45.6333008,16.3364258  C45.6333008,13.9453125,47.5922852,12,50,12s4.3666992,1.9453125,4.3666992,4.3364258  c0,2.3916016-1.9589844,4.3369141-4.3666992,4.3369141S45.6333008,18.7280273,45.6333008,16.3364258z"/><path xmlns="http://www.w3.org/2000/svg" d="M26.2270508,19.8447266c-0.0063477,0-0.012207,0-0.0185547,0c-1.6953125,0.0048828-3.2910156,0.6694336-4.4926758,1.8710938  s-1.8662109,2.7973633-1.8710938,4.4926758c-0.0048828,1.6977539,0.6523438,3.2924805,1.8500977,4.4897461  c1.1933594,1.1933594,2.7802734,1.8496094,4.4711914,1.8496094c0.0058594,0,0.012207,0,0.0180664,0  c1.6953125-0.0043945,3.2910156-0.6689453,4.4926758-1.8710938c1.2021484-1.2016602,1.8666992-2.7973633,1.8710938-4.4926758  c0.0048828-1.6972656-0.6518555-3.2919922-1.8496094-4.4892578C29.5053711,20.5014648,27.9179688,19.8447266,26.2270508,19.8447266z   M29.2626953,29.2626953c-0.8256836,0.8256836-1.9208984,1.2822266-3.0839844,1.2851562  c-1.1577148,0.0141602-2.2514648-0.4453125-3.0698242-1.2636719s-1.2675781-1.9086914-1.2641602-3.0698242  c0.003418-1.1635742,0.4599609-2.2587891,1.2851562-3.0844727c0.8256836-0.8251953,1.9208984-1.2817383,3.0844727-1.2851562  c0.0039062,0,0.0083008,0,0.012207,0c1.1567383,0,2.2421875,0.4487305,3.0576172,1.2641602  c0.8183594,0.8183594,1.2670898,1.9086914,1.2636719,3.0698242C30.5449219,27.3417969,30.0883789,28.4370117,29.2626953,29.2626953z  "/><path xmlns="http://www.w3.org/2000/svg" d="M10,50c0,3.5107422,2.8422852,6.3666992,6.3364258,6.3666992S22.6733398,53.5107422,22.6733398,50  s-2.8427734-6.3666992-6.3369141-6.3666992S10,46.4892578,10,50z M20.6733398,50  c0,2.4077148-1.9453125,4.3666992-4.3369141,4.3666992C13.9453125,54.3666992,12,52.4077148,12,50  s1.9453125-4.3666992,4.3364258-4.3666992C18.7280273,45.6333008,20.6733398,47.5922852,20.6733398,50z"/><path xmlns="http://www.w3.org/2000/svg" d="M26.2084961,80.1552734c0.0063477,0,0.012207,0,0.0185547,0c1.690918,0,3.2783203-0.6567383,4.4711914-1.8500977  c1.1977539-1.1972656,1.8544922-2.7919922,1.8496094-4.4892578c-0.0043945-1.6953125-0.6689453-3.2910156-1.8710938-4.4926758  c-1.2016602-1.2021484-2.7973633-1.8666992-4.4926758-1.8710938c-1.6542969,0.0161133-3.2919922,0.6523438-4.4892578,1.8496094  c-1.1977539,1.1972656-1.8549805,2.7919922-1.8500977,4.4897461c0.0048828,1.6953125,0.6694336,3.2910156,1.8710938,4.4926758  S24.5131836,80.1503906,26.2084961,80.1552734z M23.1088867,70.7158203  c0.8154297-0.8154297,1.9008789-1.2636719,3.0571289-1.2636719c0.0043945,0,0.0083008,0,0.0126953,0  c1.1630859,0.0029297,2.2583008,0.4594727,3.0839844,1.2851562s1.2822266,1.9208984,1.2851562,3.0839844  c0.003418,1.1611328-0.4453125,2.2514648-1.2636719,3.0698242c-0.8154297,0.8154297-1.9008789,1.2641602-3.0576172,1.2641602  c-0.0039062,0-0.0083008,0-0.012207,0c-1.1635742-0.003418-2.2587891-0.4599609-3.0844727-1.2851562  c-0.8251953-0.8256836-1.2817383-1.9208984-1.2851562-3.0844727C21.8413086,72.6245117,22.2905273,71.5341797,23.1088867,70.7158203  z"/><path xmlns="http://www.w3.org/2000/svg" d="M43.6333008,83.6635742C43.6333008,87.1577148,46.4892578,90,50,90s6.3666992-2.8422852,6.3666992-6.3364258  S53.5107422,77.3266602,50,77.3266602S43.6333008,80.1694336,43.6333008,83.6635742z M54.3666992,83.6635742  C54.3666992,86.0546875,52.4077148,88,50,88s-4.3666992-1.9453125-4.3666992-4.3364258  c0-2.3916016,1.9589844-4.3369141,4.3666992-4.3369141S54.3666992,81.2719727,54.3666992,83.6635742z"/><path xmlns="http://www.w3.org/2000/svg" d="M69.3232422,69.3232422c-1.2021484,1.2016602-1.8666992,2.7973633-1.8710938,4.4926758  c-0.0048828,1.6972656,0.6518555,3.2919922,1.8496094,4.4892578c1.1928711,1.1933594,2.7802734,1.8500977,4.4711914,1.8500977  c0.0063477,0,0.012207,0,0.0185547,0c1.6953125-0.0048828,3.2910156-0.6694336,4.4926758-1.8710938  s1.8662109-2.7973633,1.8710938-4.4926758c0.0048828-1.6977539-0.6523438-3.2924805-1.8500977-4.4897461  c-1.1972656-1.1972656-2.7548828-1.8583984-4.4892578-1.8496094C72.1206055,67.456543,70.5249023,68.1210938,69.3232422,69.3232422z   M73.8339844,69.4521484c1.15625,0,2.2416992,0.4482422,3.0571289,1.2636719  c0.8183594,0.8183594,1.2675781,1.9086914,1.2641602,3.0698242c-0.003418,1.1635742-0.4599609,2.2587891-1.2851562,3.0844727  c-0.8256836,0.8251953-1.9208984,1.2817383-3.0844727,1.2851562c-0.0039062,0-0.0083008,0-0.012207,0  c-1.1567383,0-2.2421875-0.4487305-3.0576172-1.2641602c-0.8183594-0.8183594-1.2670898-1.9086914-1.2636719-3.0698242  c0.0029297-1.1630859,0.4594727-2.2583008,1.2851562-3.0839844s1.9208984-1.2822266,3.0839844-1.2851562  C73.8256836,69.4521484,73.8295898,69.4521484,73.8339844,69.4521484z"/><path xmlns="http://www.w3.org/2000/svg" d="M83.6635742,43.6333008c-3.4941406,0-6.3369141,2.855957-6.3369141,6.3666992s2.8427734,6.3666992,6.3369141,6.3666992  S90,53.5107422,90,50S87.1577148,43.6333008,83.6635742,43.6333008z M83.6635742,54.3666992  c-2.3916016,0-4.3369141-1.9589844-4.3369141-4.3666992s1.9453125-4.3666992,4.3369141-4.3666992  C86.0546875,45.6333008,88,47.5922852,88,50S86.0546875,54.3666992,83.6635742,54.3666992z"/><path xmlns="http://www.w3.org/2000/svg" d="M73.7915039,19.8447266c-0.0063477,0-0.012207,0-0.0185547,0c-1.690918,0-3.2783203,0.6567383-4.4711914,1.8500977  c-1.1977539,1.1972656-1.8544922,2.7919922-1.8496094,4.4892578c0.0043945,1.6953125,0.6689453,3.2910156,1.8710938,4.4926758  c1.2016602,1.2021484,2.7973633,1.8666992,4.4926758,1.8710938c0.0058594,0,0.012207,0,0.0180664,0  c1.690918,0,3.2783203-0.65625,4.4711914-1.8496094c1.1977539-1.1972656,1.8549805-2.7919922,1.8500977-4.4897461  c-0.0048828-1.6953125-0.6694336-3.2910156-1.8710938-4.4926758S75.4868164,19.8496094,73.7915039,19.8447266z   M76.8911133,29.2841797c-0.8154297,0.8154297-1.9008789,1.2636719-3.0571289,1.2636719c-0.0043945,0-0.0083008,0-0.0126953,0  c-1.1630859-0.0029297-2.2583008-0.4594727-3.0839844-1.2851562s-1.2822266-1.9208984-1.2851562-3.0839844  c-0.003418-1.1611328,0.4453125-2.2514648,1.2636719-3.0698242c0.8154297-0.8154297,1.9008789-1.2641602,3.0576172-1.2641602  c0.0039062,0,0.0083008,0,0.012207,0c1.1635742,0.003418,2.2587891,0.4599609,3.0844727,1.2851562  c0.8251953,0.8256836,1.2817383,1.9208984,1.2851562,3.0844727C78.1586914,27.3754883,77.7094727,28.4658203,76.8911133,29.2841797z  "/><path xmlns="http://www.w3.org/2000/svg" d="M65.8886719,21.4545898c0.1542969,0.0864258,0.3212891,0.1269531,0.4863281,0.1269531  c0.3505859,0,0.690918-0.1845703,0.8740234-0.5126953c0.2695312-0.4824219,0.0966797-1.0913086-0.3857422-1.3603516  c-2.2021484-1.2290039-4.543457-2.2172852-6.9599609-2.9365234c-0.5288086-0.15625-1.0859375,0.144043-1.2436523,0.6733398  s0.144043,1.0859375,0.6733398,1.2436523C61.6083984,19.3666992,63.8144531,20.296875,65.8886719,21.4545898z"/><path xmlns="http://www.w3.org/2000/svg" d="M34.0727539,21.3442383c0.1606445,0,0.3237305-0.0385742,0.4750977-0.1206055  c2.0864258-1.1289062,4.3041992-2.0307617,6.5908203-2.6801758c0.53125-0.1508789,0.8398438-0.7036133,0.6889648-1.2348633  c-0.1503906-0.5317383-0.7011719-0.8378906-1.2348633-0.6889648c-2.4277344,0.6889648-4.7817383,1.6464844-6.9970703,2.8452148  c-0.4853516,0.2626953-0.6660156,0.8696289-0.4033203,1.3554688C33.3730469,21.1547852,33.7172852,21.3442383,34.0727539,21.3442383  z"/><path xmlns="http://www.w3.org/2000/svg" d="M16.8969727,39.9716797c-0.1577148,0.5292969,0.144043,1.0859375,0.6733398,1.2436523  c0.0952148,0.0283203,0.190918,0.0419922,0.2856445,0.0419922c0.4306641,0,0.8286133-0.28125,0.9580078-0.715332  c0.6777344-2.2753906,1.6079102-4.4814453,2.765625-6.5556641c0.2695312-0.4824219,0.0966797-1.0913086-0.3857422-1.3603516  c-0.4833984-0.2705078-1.0913086-0.097168-1.3603516,0.3857422C18.6044922,35.2138672,17.6162109,37.5551758,16.8969727,39.9716797z  "/><path xmlns="http://www.w3.org/2000/svg" d="M21.3486328,65.3271484c-1.1289062-2.0864258-2.0307617-4.3041992-2.6801758-6.5908203  c-0.1508789-0.5317383-0.7021484-0.8393555-1.2348633-0.6889648c-0.53125,0.1508789-0.8398438,0.7036133-0.6889648,1.2348633  c0.6889648,2.4277344,1.6464844,4.7817383,2.8452148,6.9970703c0.1806641,0.3344727,0.5249023,0.5239258,0.8803711,0.5239258  c0.1606445,0,0.3237305-0.0385742,0.4750977-0.1206055C21.4306641,66.4199219,21.6113281,65.8129883,21.3486328,65.3271484z"/><path xmlns="http://www.w3.org/2000/svg" d="M34.1113281,78.2954102c-0.4824219-0.2705078-1.0908203-0.097168-1.3603516,0.3857422  c-0.2695312,0.4824219-0.0966797,1.0913086,0.3857422,1.3603516c2.2021484,1.2290039,4.543457,2.2172852,6.9599609,2.9365234  c0.0952148,0.0283203,0.190918,0.0419922,0.2856445,0.0419922c0.4306641,0,0.8286133-0.28125,0.9580078-0.715332  c0.1577148-0.5292969-0.144043-1.0859375-0.6733398-1.2436523C38.3916016,80.3833008,36.1855469,79.453125,34.1113281,78.2954102z"/><path xmlns="http://www.w3.org/2000/svg" d="M65.4521484,78.5263672c-2.0864258,1.1289062-4.3041992,2.0307617-6.5908203,2.6801758  c-0.53125,0.1508789-0.8398438,0.7036133-0.6889648,1.2348633c0.125,0.4404297,0.5253906,0.7275391,0.9614258,0.7275391  c0.090332,0,0.1821289-0.0126953,0.2734375-0.0385742c2.4277344-0.6889648,4.7817383-1.6464844,6.9970703-2.8452148  c0.4853516-0.2626953,0.6660156-0.8696289,0.4033203-1.3554688S65.9379883,78.2626953,65.4521484,78.5263672z"/><path xmlns="http://www.w3.org/2000/svg" d="M78.8061523,67.1240234c0.1542969,0.0864258,0.3212891,0.1269531,0.4863281,0.1269531  c0.3505859,0,0.690918-0.1845703,0.8740234-0.5126953c1.2290039-2.2021484,2.2172852-4.543457,2.9365234-6.9599609  c0.1577148-0.5292969-0.144043-1.0859375-0.6733398-1.2436523c-0.5283203-0.1586914-1.0859375,0.1435547-1.2436523,0.6733398  c-0.6777344,2.2753906-1.6079102,4.4814453-2.765625,6.5556641C78.1508789,66.2460938,78.3237305,66.8549805,78.8061523,67.1240234z  "/><path xmlns="http://www.w3.org/2000/svg" d="M78.6513672,34.4228516c1.1289062,2.0864258,2.0307617,4.3041992,2.6801758,6.5908203  c0.125,0.4404297,0.5253906,0.7275391,0.9614258,0.7275391c0.090332,0,0.1821289-0.0126953,0.2734375-0.0385742  c0.53125-0.1508789,0.8398438-0.7036133,0.6889648-1.2348633c-0.6889648-2.4277344-1.6464844-4.7817383-2.8452148-6.9970703  c-0.2631836-0.4858398-0.8696289-0.668457-1.3554688-0.4033203C78.5693359,33.3300781,78.3886719,33.9370117,78.6513672,34.4228516z  "/><path xmlns="http://www.w3.org/2000/svg" d="M50,70c11.027832,0,20-8.972168,20-20s-8.972168-20-20-20s-20,8.972168-20,20S38.972168,70,50,70z M50,32  c9.925293,0,18,8.074707,18,18s-8.074707,18-18,18s-18-8.074707-18-18S40.074707,32,50,32z"/></g><g id="SvgjsG1013" featureKey="A7DQL5-0" transform="matrix(2.3126723405997223,0,0,2.3126723405997223,120,22.19426980518587)" fill="#000"><path d="M0 10.94 l0.000039062 9.06 l3.84 0 c1.1467 0 2.0534 -0.40666 2.72 -1.22 s1 -1.8667 1 -3.16 c0 -0.34666 -0.04334 -0.74332 -0.13 -1.19 s-0.23332 -0.88 -0.43998 -1.3 s-0.48666 -0.8 -0.84 -1.14 s-0.81 -0.57666 -1.37 -0.71 c0.56 -0.34666 0.96666 -0.81 1.22 -1.39 s0.38 -1.19 0.38 -1.83 c0 -1.2267 -0.34 -2.17 -1.02 -2.83 s-1.6067 -0.99 -2.78 -0.99 l-2.58 0 l0 6.22 l0.7 0 l-0.02 -5.4 l1.96 0 c1.1067 0 1.8867 0.29 2.34 0.87 s0.68 1.29 0.68 2.13 c0 0.90666 -0.20666 1.61 -0.62 2.11 s-0.98 0.75 -1.7 0.75 l-2.62 0 l0.44 0.88 l2.68 0 c0.54666 0 1.0133 0.12334 1.4 0.37 s0.70332 0.55666 0.94998 0.93 s0.43 0.79334 0.55 1.26 s0.18 0.92 0.18 1.36 c0 0.42666 -0.06 0.84666 -0.18 1.26 s-0.3 0.78334 -0.54 1.11 s-0.55334 0.59 -0.94 0.79 s-0.84666 0.3 -1.38 0.3 l-3.2 0 l0.02 -8.24 l-0.7 0 z M15.5 6.140000000000001 c0 0.08 0.23666 0.84334 0.71 2.29 s0.99 3.03 1.55 4.75 s1.3133 3.9934 2.26 6.82 l0.86 0 l-5.3 -15.76 l-0.16 0 l-5.26 15.76 l0.82 0 z M15.14 15.52 l-0.72 0 l1.2 4.48 l0.72 0 z M25.560000000000002 11.02 l1.78 1.66 c0.56 0.52 1 1.0767 1.32 1.67 s0.48 1.19 0.48 1.79 l0 0.26 c0.01334 0.42666 -0.04 0.80666 -0.16 1.14 l0.74 0 c0.10666 -0.36 0.15332 -0.73334 0.13998 -1.12 l0 -0.28 c0 -0.72 -0.18334 -1.4067 -0.55 -2.06 s-0.87666 -1.2933 -1.53 -1.92 l-1.72 -1.62 c-0.54666 -0.52 -0.99666 -1.0067 -1.35 -1.46 s-0.53 -1.02 -0.53 -1.7 l0 -0.12 c0 -0.70666 0.19666 -1.2767 0.59 -1.71 s0.94334 -0.65 1.65 -0.65 c0.50666 0 0.92 0.07666 1.24 0.23 s0.64666 0.38334 0.98 0.69 l0.46 -0.52 c-0.37334 -0.34666 -0.75668 -0.60666 -1.15 -0.78 s-0.90334 -0.26 -1.53 -0.26 c-0.81334 0 -1.5033 0.26334 -2.07 0.79 s-0.85 1.2567 -0.85 2.19 l0 0.16 c0 0.76 0.19 1.41 0.57 1.95 s0.87666 1.0967 1.49 1.67 z M29.44 18.3 l-0.82002 0 c-0.46666 0.68 -1.2133 1.0267 -2.24 1.04 c-0.34666 0 -0.66 -0.04 -0.94 -0.12 l0 0.7 c0.28 0.05334 0.59334 0.08 0.94 0.08 c0.72 0 1.34 -0.14666 1.86 -0.44 s0.92 -0.71334 1.2 -1.26 z M32.46 4.24 l0 15.76 l0.52 0 l0 -15.76 l-0.52 0 z M42.519999999999996 19.96 l0.039942 -0.63998 c-1.96 -0.13334 -3.52 -0.94668 -4.68 -2.44 c-1.1067 -1.3867 -1.66 -3.06 -1.66 -5.02 c0 -1.0267 0.16666 -1.9167 0.5 -2.67 s0.83334 -1.4833 1.5 -2.19 c1.3333 -1.4 3 -2.1 5 -2.1 c1.2133 0 2.3066 0.26 3.28 0.78 s1.7667 1.2467 2.38 2.18 l0.48 -0.38 c-0.66666 -1.0133 -1.5333 -1.8067 -2.6 -2.38 c-1.0133 -0.54666 -2.16 -0.81332 -3.44 -0.79998 c-1.08 0 -2.0934 0.18334 -3.04 0.55 s-1.78 0.93 -2.5 1.69 c-0.72 0.77334 -1.2633 1.5733 -1.63 2.4 s-0.55 1.8 -0.55 2.92 c0.01334 2.12 0.62 3.9334 1.82 5.44 c1.28 1.6133 2.98 2.5 5.1 2.66 z M43.739999999999995 19.98002 c1.0933 -0.06666 2.0934 -0.32664 3 -0.77998 c1.04 -0.53334 1.9133 -1.2867 2.62 -2.26 l-0.46 -0.4 c-0.64 0.88 -1.4467 1.5733 -2.42 2.08 c-0.84 0.42666 -1.76 0.66666 -2.76 0.72 z M57.61999999999999 16.06 l0 -11.82 l-0.66 0 l0 11.82 l0.66 0 z M62.99999999999999 20 l0 -0.68 l-5.38 0 l0 -1.96 l-0.66 0 l0 2.64 l6.04 0 z M70.94 6.140000000000001 c0 0.08 0.23666 0.84334 0.71 2.29 s0.99 3.03 1.55 4.75 s1.3133 3.9934 2.26 6.82 l0.86 0 l-5.3 -15.76 l-0.16 0 l-5.26 15.76 l0.82 0 z M70.58 15.52 l-0.72 0 l1.2 4.48 l0.72 0 z M78.91999999999999 10.94 l0.000039062 9.06 l3.84 0 c1.1467 0 2.0534 -0.40666 2.72 -1.22 s1 -1.8667 1 -3.16 c0 -0.34666 -0.04334 -0.74332 -0.13 -1.19 s-0.23332 -0.88 -0.43998 -1.3 s-0.48666 -0.8 -0.84 -1.14 s-0.81 -0.57666 -1.37 -0.71 c0.56 -0.34666 0.96666 -0.81 1.22 -1.39 s0.38 -1.19 0.38 -1.83 c0 -1.2267 -0.34 -2.17 -1.02 -2.83 s-1.6067 -0.99 -2.78 -0.99 l-2.58 0 l0 6.22 l0.7 0 l-0.02 -5.4 l1.96 0 c1.1067 0 1.8867 0.29 2.34 0.87 s0.68 1.29 0.68 2.13 c0 0.90666 -0.20666 1.61 -0.62 2.11 s-0.98 0.75 -1.7 0.75 l-2.62 0 l0.44 0.88 l2.68 0 c0.54666 0 1.0133 0.12334 1.4 0.37 s0.70332 0.55666 0.94998 0.93 s0.43 0.79334 0.55 1.26 s0.18 0.92 0.18 1.36 c0 0.42666 -0.06 0.84666 -0.18 1.26 s-0.3 0.78334 -0.54 1.11 s-0.55334 0.59 -0.94 0.79 s-0.84666 0.3 -1.38 0.3 l-3.2 0 l0.02 -8.24 l-0.7 0 z"/></g>
			</g>
		</svg>
	